<?xml version="1.0" encoding="UTF-8"?>
<svg id="Graphic" xmlns="http://www.w3.org/2000/svg" version="1.1" viewBox="0 0 500 500">
  <defs>
    <style>
      .cls-1 {
        fill: #222373;
      }

      .cls-1, .cls-2, .cls-3 {
        stroke-width: 0px;
      }

      .cls-2 {
        fill: #231f20;
      }

      .cls-3 {
        fill: #d381b5;
      }
    </style>
  </defs>
  <g>
    <path class="cls-2" d="M35.2,319.4h-11.8v-7.2h31.3v7.2h-11.8v32.4h-7.7v-32.4Z"/>
    <path class="cls-2" d="M53.2,336.8c0-9.1,6.7-15.7,16.1-15.7s16.1,6.7,16.1,15.7-6.7,15.7-16.1,15.7-16.1-6.7-16.1-15.7ZM78,336.8c0-5.3-3.5-9-8.8-9s-8.8,3.8-8.8,9,3.6,9,8.8,9,8.8-3.8,8.8-9Z"/>
    <path class="cls-2" d="M88.9,337c0-9.7,6.5-16,15.9-16s16.2,6.5,16.2,16-7.6,15.4-14.9,15.4-7.9-1.8-10-5.1v17.1h-7.2v-27.5ZM113.7,336.8c0-5.3-3.6-9-8.8-9s-8.8,3.8-8.8,9,3.5,9,8.8,9,8.8-3.8,8.8-9Z"/>
    <path class="cls-2" d="M123.2,336.8c0-9.1,6.7-15.7,16.1-15.7s16.1,6.7,16.1,15.7-6.7,15.7-16.1,15.7-16.1-6.7-16.1-15.7ZM148.1,336.8c0-5.3-3.5-9-8.8-9s-8.8,3.8-8.8,9,3.6,9,8.8,9,8.8-3.8,8.8-9Z"/>
    <path class="cls-2" d="M160,308.8h7.2v43h-7.2v-43Z"/>
    <path class="cls-2" d="M171.7,336.8c0-9.1,6.7-15.7,16.1-15.7s16.1,6.7,16.1,15.7-6.7,15.7-16.1,15.7-16.1-6.7-16.1-15.7ZM196.6,336.8c0-5.3-3.5-9-8.8-9s-8.8,3.8-8.8,9,3.6,9,8.8,9,8.8-3.8,8.8-9Z"/>
    <path class="cls-2" d="M207.2,355h7.3c1.2,2.8,4.1,4.1,7.9,4.1s8.7-2.5,8.7-9.4v-2.6c-2.1,3.3-5.6,5.1-10.1,5.1-7.1,0-14.8-4.8-14.8-15.4s6.7-15.7,16.1-15.7,16,6.3,16,16v12.3c0,11.4-7.1,15.9-15.9,15.9s-13.3-3.2-15.2-10.3ZM231,336.8c0-5.3-3.5-9-8.8-9s-8.8,3.8-8.8,9,3.6,8.7,8.8,8.7,8.8-3.4,8.8-8.7Z"/>
    <path class="cls-2" d="M243.2,355h7.2c1.2,2.8,3.6,4.1,7.2,4.1s7.7-2.4,7.7-8.2v-3.8c-1.8,3.3-5,5-8.9,5-6.9,0-13.4-4.5-13.4-15.1v-15.2h7.2v15.2c0,5.7,3,8.4,7.6,8.4s7.6-2.8,7.6-8.4v-15.2h7.2v28.9c0,10.4-6.6,14.6-14.9,14.6s-12.7-3.2-14.4-10.3Z"/>
    <path class="cls-2" d="M294.1,312.2h7.7v15.9h18.9v-15.9h7.7v39.6h-7.7v-16.5h-18.9v16.5h-7.7v-39.6Z"/>
    <path class="cls-2" d="M333.1,336.8c0-9.1,6.7-15.7,16.1-15.7s16,6.7,16,15.7v2.5h-24.5c1,4.4,4.3,6.7,8.5,6.7s5.6-.9,7.1-2.8h7.7c-2.2,5.7-7.7,9.4-14.8,9.4s-16.1-6.7-16.1-15.7ZM357.6,333.6c-1.1-4-4.4-6-8.3-6s-7.2,2.1-8.3,6h16.7Z"/>
    <path class="cls-2" d="M367.5,337.1c0-9.5,6.7-16,16.2-16s15.9,6.4,15.9,16v14.7h-6.6v-5.9c-1.8,4.4-5.9,6.7-10.6,6.7-7.3,0-14.9-5.2-14.9-15.4ZM392.4,336.8c0-5.3-3.5-9-8.8-9s-8.8,3.8-8.8,9,3.6,9,8.8,9,8.8-3.8,8.8-9Z"/>
    <path class="cls-2" d="M405.3,308.8h7.2v43h-7.2v-43Z"/>
    <path class="cls-2" d="M418.3,340.2v-29h7.2v10.6h15.4v6.5h-15.4v11.9c0,4,2.1,5.6,5,5.6s5-1.5,5-5.6v-.8h7.2v.8c0,8.3-5,12.3-12.2,12.3s-12.2-4-12.2-12.3Z"/>
    <path class="cls-2" d="M447.1,308.8h7.2v17.2c2-3.2,5.1-5,8.9-5,6.9,0,13.4,4.5,13.4,15.1v15.5h-7.2v-15.5c0-5.7-3-8.4-7.6-8.4s-7.6,2.8-7.6,8.4v15.5h-7.2v-43Z"/>
  </g>
  <path class="cls-1" d="M251.2,222.6c4,.3,8.1-.6,11.8-2.6,2.1-1.1,4-2.5,5.6-4.3,4.5-4.9,6.2-11.3,5.3-17.3,0,0,0-.2,0-.3-1-6.1.8-12.5,5.3-17.3s10.8-7.1,16.9-6.6c0,0,.2,0,.3,0,6.1.5,12.4-1.7,16.9-6.6,7.8-8.4,7.3-21.5-1.1-29.3-8.4-7.8-21.5-7.3-29.3,1.1-4.5,4.9-6.2,11.3-5.3,17.3,0,0,0,.2,0,.3,1,6.1-.8,12.5-5.3,17.3-4.5,4.9-10.8,7.1-16.9,6.6,0,0-.2,0-.3,0-4-.3-8.1.6-11.8,2.6-2.1,1.1-4,2.5-5.6,4.3-4.5,4.9-6.2,11.3-5.3,17.3,0,0,0,.2,0,.3,1,6.1-.8,12.5-5.3,17.3-4.5,4.9-10.8,7.1-16.9,6.6,0,0-.2,0-.3,0-6.1-.5-12.4,1.7-16.9,6.6-7.8,8.4-7.3,21.5,1.1,29.3s21.5,7.3,29.3-1.1c4.5-4.9,6.2-11.3,5.3-17.3,0,0,0-.2,0-.3-1-6.1.8-12.5,5.3-17.3,4.5-4.9,10.8-7.1,16.9-6.6,0,0,.2,0,.3,0"/>
  <path class="cls-1" d="M316,222.6c0,0,.2,0,.3,0,6.1.5,12.4-1.7,16.9-6.6,7.8-8.4,7.3-21.5-1.1-29.3-8.4-7.8-21.5-7.3-29.3,1.1-4.5,4.9-6.2,11.3-5.3,17.3,0,0,0,.2,0,.3,1,6.1-.8,12.5-5.3,17.3-4.5,4.9-10.8,7.1-16.9,6.6,0,0-.2,0-.3,0-6.1-.5-12.4,1.7-16.9,6.6-7.8,8.4-7.3,21.5,1.1,29.3,8.4,7.8,21.5,7.3,29.3-1.1,4.5-4.9,6.2-11.3,5.3-17.3,0,0,0-.2,0-.3-1-6.1.8-12.5,5.3-17.3,4.5-4.9,10.8-7.1,16.9-6.6"/>
  <path class="cls-3" d="M185.8,222.6c0,0,.2,0,.3,0,6.1.5,12.4-1.7,16.9-6.6,7.8-8.4,7.3-21.5-1.1-29.3-8.4-7.8-21.5-7.3-29.3,1.1-4.5,4.9-6.2,11.3-5.3,17.3,0,0,0,.2,0,.3,1,6.1-.8,12.5-5.3,17.3-4.5,4.9-10.8,7.1-16.9,6.6,0,0-.2,0-.3,0-6.1-.5-12.4,1.7-16.9,6.6-7.8,8.4-7.3,21.5,1.1,29.3s21.5,7.3,29.3-1.1c4.5-4.9,6.2-11.3,5.3-17.3,0,0,0-.2,0-.3-1-6.1.8-12.5,5.3-17.3s10.8-7.1,16.9-6.6"/>
  <path class="cls-1" d="M338.6,229.1c-11.5,0-20.9,9.3-20.9,20.9s9.3,20.9,20.9,20.9,20.9-9.3,20.9-20.9-9.3-20.9-20.9-20.9"/>
</svg>